<?xml version="1.0" encoding="UTF-8"?>
<svg width="122.46pt" height="122.46pt" version="1.1" viewBox="0 0 122.46 122.46" xmlns="http://www.w3.org/2000/svg">
 <g fill="#d02c2f">
  <path d="m10.203 76.535v-7.6367h5.1406v1.5547h-3.3555v1.4414h3.1719v1.4805h-3.1719v1.5859h3.5508v1.5742z"/>
  <path d="m17.035 68.898h1.8594v7.6367h-1.8594z"/>
  <path d="m25.531 76.535-3.0781-4.9922h-0.035156l0.042969 4.9922h-1.793v-7.6367h2.1094l3.0664 4.9844h0.03125l-0.042969-4.9844h1.793v7.6367z"/>
  <path d="m34.621 72.695c0-0.43359-0.070313-0.78906-0.21484-1.0742-0.13672-0.28125-0.32422-0.51172-0.55859-0.67969-0.23438-0.16797-0.5-0.28906-0.80078-0.35938-0.29688-0.074219-0.60547-0.10938-0.92188-0.10938h-0.91797v4.4648h0.875c0.33203 0 0.64844-0.035156 0.95703-0.11328 0.30469-0.074219 0.57422-0.19922 0.80859-0.37109s0.42188-0.40234 0.55859-0.69141c0.14453-0.28516 0.21484-0.64062 0.21484-1.0664m1.9219 0c0 0.66797-0.125 1.2461-0.375 1.7305-0.24609 0.48828-0.57422 0.88672-0.98047 1.1992-0.41016 0.3125-0.86719 0.54297-1.3789 0.6875-0.51172 0.14844-1.0312 0.22266-1.5547 0.22266h-2.8516v-7.6367h2.7656c0.53906 0 1.0703 0.0625 1.5977 0.1875 0.52734 0.12891 0.99219 0.33594 1.4062 0.625 0.41016 0.29297 0.73828 0.68359 0.99219 1.1719 0.25 0.48828 0.37891 1.0938 0.37891 1.8125"/>
  <path d="m42.75 76.535v-3.1914h-2.9805v3.1914h-1.8477v-7.6367h1.8477v2.8906h2.9805v-2.8906h1.8477v7.6367z"/>
  <path d="m52.359 72.684c0-0.33203-0.054687-0.64062-0.16406-0.92578-0.10547-0.28906-0.25781-0.53516-0.44531-0.73828-0.19141-0.20703-0.42188-0.36719-0.69141-0.48828-0.26953-0.11719-0.56641-0.17578-0.89062-0.17578s-0.62109 0.058593-0.88672 0.17578c-0.26562 0.12109-0.49609 0.28125-0.69141 0.48828-0.19531 0.20312-0.34375 0.44922-0.44922 0.73828-0.10547 0.28516-0.15625 0.59375-0.15625 0.92578 0 0.34766 0.054687 0.66406 0.16406 0.95703 0.10547 0.28906 0.25391 0.53906 0.44531 0.74609 0.19141 0.21094 0.42188 0.375 0.6875 0.49219 0.26562 0.12109 0.5625 0.17969 0.88672 0.17969s0.61719-0.058594 0.88281-0.17969c0.26953-0.11719 0.5-0.28125 0.69141-0.49219 0.19531-0.20703 0.34766-0.45703 0.45312-0.74609 0.10938-0.29297 0.16406-0.60938 0.16406-0.95703m1.9766 0c0 0.60547-0.10547 1.1562-0.3125 1.6562-0.21094 0.5-0.5 0.92969-0.87109 1.2852s-0.8125 0.62891-1.3242 0.82422c-0.50781 0.19531-1.0625 0.29297-1.6602 0.29297-0.59766 0-1.1523-0.097657-1.6602-0.29297-0.50781-0.19531-0.94531-0.46875-1.3164-0.82422s-0.66016-0.78516-0.87109-1.2852c-0.20703-0.5-0.3125-1.0508-0.3125-1.6562 0-0.60938 0.10547-1.1641 0.3125-1.6562 0.21094-0.49219 0.5-0.91016 0.87109-1.2578 0.37109-0.34375 0.80859-0.60938 1.3164-0.79688 0.50781-0.1875 1.0625-0.28125 1.6602-0.28125 0.59766 0 1.1523 0.09375 1.6602 0.28125 0.51172 0.1875 0.95312 0.45312 1.3242 0.79688 0.37109 0.34766 0.66016 0.76562 0.87109 1.2578 0.20703 0.49219 0.3125 1.0469 0.3125 1.6562"/>
  <path d="m59.254 76.535h-1.8477l-2.8945-7.6367h2.0742l1.7734 5.4141h0.042969l1.7578-5.4141h2.043z"/>
  <path d="m63.082 76.535v-7.6367h5.1406v1.5547h-3.3555v1.4414h3.1719v1.4805h-3.1719v1.5859h3.5508v1.5742z"/>
  <path d="m74.766 76.535-3.0781-4.9922h-0.03125l0.042969 4.9922h-1.793v-7.6367h2.1055l3.0664 4.9844h0.035156l-0.046875-4.9844h1.793v7.6367z"/>
  <path d="m14.211 95.984v6.0625h-1.8477v-6.0625h-2.1602v-1.5742h6.168v1.5742z"/>
  <path d="m17.363 102.05v-7.6367h5.1406v1.5547h-3.3594v1.4453h3.1758v1.4766h-3.1758v1.5859h3.5547v1.5742z"/>
  <path d="m29.531 101.91c-0.49609 0.22656-1.0703 0.33984-1.7188 0.33984-0.58984 0-1.1328-0.097656-1.6328-0.29297-0.50391-0.19531-0.9375-0.46875-1.3047-0.82422s-0.65234-0.78125-0.86328-1.2773c-0.20703-0.49609-0.3125-1.043-0.3125-1.6406 0-0.61328 0.10547-1.168 0.32031-1.6602 0.21094-0.49609 0.50391-0.92188 0.87891-1.2695 0.375-0.34766 0.8125-0.61719 1.3164-0.80469s1.0469-0.27734 1.6328-0.27734c0.53906 0 1.0703 0.09375 1.5898 0.28516 0.52344 0.19141 0.94531 0.46875 1.2695 0.83594l-1.25 1.25c-0.17578-0.23828-0.40234-0.41406-0.68359-0.52734-0.27734-0.11719-0.56641-0.17578-0.86328-0.17578-0.32422 0-0.62109 0.0625-0.89062 0.17969-0.26953 0.11719-0.5 0.28125-0.69531 0.49219-0.19531 0.20703-0.34766 0.45312-0.45312 0.73828-0.10938 0.28516-0.16406 0.59375-0.16406 0.93359 0 0.34375 0.054688 0.66016 0.16406 0.94922 0.10547 0.28516 0.25781 0.53125 0.44531 0.73828 0.19141 0.20703 0.42188 0.36719 0.6875 0.48047s0.55859 0.17188 0.875 0.17188c0.36719 0 0.6875-0.070313 0.96094-0.21484 0.27344-0.14453 0.49219-0.33203 0.66016-0.5625l1.2852 1.207c-0.33984 0.39062-0.75781 0.69922-1.2539 0.92578"/>
  <path d="m36.578 102.05v-3.1914h-2.9805v3.1914h-1.8477v-7.6367h1.8477v2.8906h2.9805v-2.8906h1.8477v7.6367z"/>
  <path d="m45.066 102.05-3.0781-4.9922h-0.03125l0.042969 4.9922h-1.793v-7.6367h2.1055l3.0664 4.9844h0.035156l-0.046874-4.9844h1.793v7.6367z"/>
  <path d="m54.918 98.195c0-0.32812-0.054688-0.64062-0.16406-0.92578-0.10547-0.28906-0.25781-0.53516-0.44922-0.73828-0.1875-0.20703-0.41797-0.36719-0.6875-0.48828-0.27344-0.11719-0.57031-0.17578-0.89453-0.17578-0.32031 0-0.61719 0.058593-0.88281 0.17578-0.26953 0.12109-0.5 0.28125-0.69141 0.48828-0.19531 0.20312-0.34375 0.44922-0.44922 0.73828-0.10547 0.28516-0.15625 0.59766-0.15625 0.92578 0 0.34766 0.054687 0.66406 0.16016 0.95703 0.10938 0.28906 0.25781 0.53906 0.44922 0.74609 0.19141 0.21094 0.41797 0.375 0.6875 0.49219 0.26562 0.12109 0.5625 0.17969 0.88281 0.17969 0.32422 0 0.62109-0.058593 0.88672-0.17969 0.26562-0.11719 0.49609-0.28125 0.69141-0.49219 0.19531-0.20703 0.34766-0.45703 0.45312-0.74609 0.10938-0.29297 0.16406-0.60938 0.16406-0.95703m1.9727 0c0 0.60547-0.10156 1.1562-0.3125 1.6562-0.20703 0.5-0.49609 0.92969-0.86719 1.2852-0.37109 0.35547-0.8125 0.62891-1.3242 0.82422-0.51172 0.19531-1.0664 0.29297-1.6641 0.29297s-1.1484-0.097656-1.6562-0.29297c-0.50781-0.19531-0.94531-0.46875-1.3164-0.82422s-0.66406-0.78516-0.87109-1.2852c-0.20703-0.5-0.3125-1.0508-0.3125-1.6562 0-0.60937 0.10547-1.1602 0.3125-1.6562 0.20703-0.49219 0.5-0.91016 0.87109-1.2539 0.37109-0.34766 0.80859-0.61328 1.3164-0.80078 0.50781-0.1875 1.0586-0.27734 1.6562-0.27734s1.1523 0.089844 1.6641 0.27734 0.95312 0.45312 1.3242 0.80078c0.37109 0.34375 0.66016 0.76172 0.86719 1.2539 0.21094 0.49609 0.3125 1.0469 0.3125 1.6562"/>
  <path d="m58.281 102.05v-7.6367h1.8594v6.0312h2.957v1.6055z"/>
  <path d="m70 98.195c0-0.32812-0.054688-0.64062-0.16406-0.92578-0.10547-0.28906-0.25781-0.53516-0.44531-0.73828-0.19141-0.20703-0.42188-0.36719-0.69141-0.48828-0.27344-0.11719-0.57031-0.17578-0.89062-0.17578-0.32422 0-0.62109 0.058593-0.88672 0.17578-0.26953 0.12109-0.5 0.28125-0.69141 0.48828-0.19531 0.20312-0.34375 0.44922-0.44922 0.73828-0.10547 0.28516-0.15625 0.59766-0.15625 0.92578 0 0.34766 0.054688 0.66406 0.16016 0.95703 0.10938 0.28906 0.25781 0.53906 0.44922 0.74609 0.19141 0.21094 0.41797 0.375 0.6875 0.49219 0.26562 0.12109 0.5625 0.17969 0.88672 0.17969 0.32031 0 0.61719-0.058593 0.88281-0.17969 0.26562-0.11719 0.49609-0.28125 0.69141-0.49219 0.19531-0.20703 0.34766-0.45703 0.45313-0.74609 0.10937-0.29297 0.16406-0.60938 0.16406-0.95703m1.9766 0c0 0.60547-0.10547 1.1562-0.31641 1.6562-0.20703 0.5-0.49609 0.92969-0.86719 1.2852-0.37109 0.35547-0.8125 0.62891-1.3242 0.82422-0.51172 0.19531-1.0664 0.29297-1.6602 0.29297-0.60156 0-1.1523-0.097656-1.6602-0.29297-0.50781-0.19531-0.94531-0.46875-1.3164-0.82422-0.37109-0.35547-0.66406-0.78516-0.87109-1.2852-0.20703-0.5-0.3125-1.0508-0.3125-1.6562 0-0.60937 0.10547-1.1602 0.3125-1.6562 0.20703-0.49219 0.5-0.91016 0.87109-1.2539 0.37109-0.34766 0.80859-0.61328 1.3164-0.80078 0.50781-0.1875 1.0586-0.27734 1.6602-0.27734 0.59375 0 1.1484 0.089844 1.6602 0.27734s0.95312 0.45312 1.3242 0.80078c0.37109 0.34375 0.66016 0.76172 0.86719 1.2539 0.21094 0.49609 0.31641 1.0469 0.31641 1.6562"/>
  <path d="m78.812 102.06c-0.5 0.12109-1.0469 0.18359-1.6367 0.18359-0.60938 0-1.1758-0.097657-1.6875-0.29297-0.51562-0.19141-0.95703-0.46484-1.3281-0.82031-0.37109-0.35156-0.66016-0.77344-0.87109-1.2656-0.20703-0.49219-0.3125-1.043-0.3125-1.6445 0-0.61328 0.10547-1.1641 0.31641-1.6602 0.21484-0.49609 0.50781-0.92188 0.88281-1.2695 0.375-0.34766 0.8125-0.61719 1.3164-0.80469 0.50391-0.18359 1.0469-0.27734 1.6328-0.27734 0.60156 0 1.1641 0.089844 1.6836 0.27344 0.51953 0.18359 0.9375 0.42969 1.2617 0.73828l-1.1641 1.3281c-0.17969-0.21094-0.41797-0.37891-0.71484-0.51172-0.29297-0.13281-0.62891-0.19922-1.0039-0.19922-0.32422 0-0.62109 0.058593-0.89453 0.17578-0.27344 0.12109-0.51172 0.28516-0.71484 0.49609-0.19922 0.21094-0.35938 0.46484-0.46875 0.75391-0.11328 0.29297-0.16797 0.61328-0.16797 0.95703 0 0.35156 0.050782 0.67578 0.15234 0.96875 0.10156 0.29688 0.25 0.55078 0.44922 0.76172 0.19531 0.21094 0.44141 0.37891 0.73438 0.49609 0.28906 0.11719 0.625 0.17969 0.99609 0.17969 0.21875 0 0.42187-0.019531 0.61719-0.050781s0.375-0.085938 0.53906-0.15625v-1.3906h-1.457v-1.4883h3.1523v4.043c-0.375 0.19531-0.8125 0.35547-1.3125 0.47656"/>
  <path d="m85.434 98.812v3.2344h-1.8438v-3.2344l-2.875-4.4023h2.2344l1.6328 2.8242 1.6328-2.8242h2.1562z"/>
  <path d="m16.527 87.668c-0.15234 0.37891-0.375 0.69922-0.66406 0.97266-0.28906 0.26953-0.63672 0.47656-1.043 0.62891-0.40625 0.15234-0.85547 0.22656-1.3555 0.22656-0.50391 0-0.95703-0.074219-1.3594-0.22656-0.40234-0.15234-0.74609-0.35938-1.0273-0.62891-0.28125-0.27344-0.49609-0.59375-0.64844-0.97266-0.14844-0.37891-0.22656-0.79688-0.22656-1.2578v-4.7578h1.8398v4.6094c0 0.20703 0.023437 0.40625 0.078125 0.59375 0.054687 0.18359 0.13672 0.35156 0.25 0.5 0.10938 0.14844 0.25781 0.26172 0.44141 0.35156 0.18359 0.085938 0.40625 0.12891 0.66406 0.12891 0.25781 0 0.48047-0.042969 0.66406-0.12891 0.18359-0.089843 0.33203-0.20312 0.44922-0.35156 0.11328-0.14844 0.19531-0.31641 0.25-0.5 0.046875-0.1875 0.074218-0.38672 0.074218-0.59375v-4.6094h1.8477v4.7578c0 0.46094-0.078125 0.87891-0.23438 1.2578"/>
  <path d="m23.336 89.293-3.0781-4.9961h-0.03125l0.042969 4.9961h-1.793v-7.6367h2.1055l3.0664 4.9805h0.03125l-0.042969-4.9805h1.793v7.6367z"/>
  <path d="m27.207 81.652h1.8555v7.6367h-1.8555z"/>
  <path d="m34.688 89.293h-1.8477l-2.8945-7.6367h2.0742l1.7695 5.4141h0.042969l1.7617-5.4141h2.0391z"/>
  <path d="m38.516 89.293v-7.6367h5.1406v1.5508h-3.3594v1.4453h3.1758v1.4766h-3.1758v1.5859h3.5547v1.5781z"/>
  <path d="m49.355 83.996c0-0.17969-0.039063-0.32422-0.11328-0.4375-0.078126-0.11328-0.17578-0.19922-0.29297-0.25781-0.12109-0.0625-0.25391-0.10547-0.40234-0.125-0.14844-0.023437-0.29297-0.03125-0.42969-0.03125h-0.98828v1.7773h0.87891c0.15234 0 0.30859-0.011719 0.46875-0.035156 0.16016-0.027344 0.30469-0.070313 0.43359-0.13672s0.23828-0.15625 0.32031-0.28125c0.082031-0.12109 0.125-0.28125 0.125-0.47266m0.074219 5.293-1.6602-3.0273h-0.62891v3.0273h-1.8047v-7.6367h2.918c0.36719 0 0.72656 0.039062 1.0742 0.11719 0.34766 0.074219 0.66406 0.20312 0.94141 0.37891 0.27734 0.17969 0.49609 0.41797 0.66406 0.71484 0.16406 0.29297 0.24609 0.66016 0.24609 1.0977 0 0.51953-0.14063 0.95312-0.42188 1.3086-0.28125 0.35156-0.66797 0.60156-1.1641 0.75391l1.9961 3.2656z"/>
  <path d="m56.754 83.641c-0.16016-0.20312-0.36719-0.36328-0.62109-0.48047-0.25781-0.12109-0.50391-0.17969-0.74219-0.17969-0.12109 0-0.24609 0.011719-0.37109 0.03125-0.125 0.023437-0.23828 0.066406-0.33984 0.125-0.10156 0.0625-0.18359 0.14062-0.25391 0.23828-0.070312 0.097656-0.10156 0.22266-0.10156 0.37109 0 0.12891 0.027343 0.23828 0.082031 0.32422 0.050781 0.085938 0.13281 0.16016 0.23438 0.22656 0.10547 0.066406 0.23047 0.125 0.375 0.17969 0.14453 0.050782 0.30469 0.10938 0.48438 0.16406 0.25781 0.085937 0.53125 0.18359 0.80859 0.28906 0.28125 0.10156 0.53906 0.24219 0.76953 0.41406s0.42188 0.38672 0.57031 0.64062c0.15234 0.25781 0.22656 0.57422 0.22656 0.95703 0 0.4375-0.078125 0.81641-0.24219 1.1367-0.16016 0.32031-0.37891 0.58203-0.65234 0.79297-0.27344 0.20703-0.58594 0.36328-0.94141 0.46484-0.35156 0.097656-0.71484 0.14844-1.0898 0.14844-0.54688 0-1.0742-0.09375-1.5859-0.28516-0.51172-0.19141-0.9375-0.46094-1.2773-0.8125l1.2109-1.2305c0.1875 0.23047 0.43359 0.42188 0.74219 0.57812 0.30469 0.15234 0.60938 0.23047 0.91016 0.23047 0.13672 0 0.26953-0.015625 0.39844-0.042969 0.13281-0.027344 0.24609-0.074219 0.33984-0.14062 0.097656-0.0625 0.17578-0.15234 0.23438-0.25781 0.058594-0.10938 0.085937-0.23828 0.085937-0.39063 0-0.14453-0.035156-0.26562-0.10937-0.36719-0.070313-0.097656-0.17188-0.19141-0.30469-0.27344-0.13281-0.082032-0.30078-0.16016-0.5-0.22656-0.19531-0.070313-0.42188-0.14062-0.67188-0.22266-0.24609-0.078125-0.48438-0.17188-0.71875-0.27734-0.23438-0.10938-0.44531-0.24609-0.625-0.41797-0.1875-0.16797-0.33203-0.37109-0.44531-0.61328-0.11328-0.24219-0.16797-0.53516-0.16797-0.87891 0-0.42578 0.085937-0.78906 0.26172-1.0898 0.17188-0.30078 0.39844-0.55078 0.67969-0.74609 0.28125-0.19141 0.59766-0.33594 0.94922-0.42578 0.35156-0.089844 0.70703-0.13281 1.0703-0.13281 0.42969 0 0.87109 0.078124 1.3242 0.23437 0.44922 0.16016 0.84375 0.39453 1.1797 0.70313z"/>
  <path d="m59.285 81.652h1.8594v7.6367h-1.8594z"/>
  <path d="m66.137 83.23v6.0625h-1.8477v-6.0625h-2.1602v-1.5781h6.168v1.5781z"/>
  <path d="m73.523 86.055v3.2383h-1.8477v-3.2383l-2.8711-4.4023h2.2344l1.6328 2.8281 1.6289-2.8281h2.1602z"/>
  <path d="m86.16 85.441c0-0.33203-0.054687-0.64062-0.16016-0.92969-0.10938-0.28516-0.26172-0.53516-0.44922-0.73828-0.19141-0.20313-0.42188-0.36719-0.69141-0.48438-0.26953-0.12109-0.56641-0.17969-0.89062-0.17969s-0.62109 0.058594-0.88672 0.17969c-0.26562 0.11719-0.49609 0.28125-0.69141 0.48438-0.19531 0.20312-0.34375 0.45312-0.44922 0.73828-0.10156 0.28906-0.15625 0.59766-0.15625 0.92969 0 0.34375 0.054688 0.66016 0.16406 0.95312 0.10547 0.29297 0.25781 0.54297 0.44531 0.75 0.19141 0.20703 0.42188 0.37109 0.6875 0.49219 0.26562 0.11719 0.5625 0.17578 0.88672 0.17578s0.61719-0.058594 0.88281-0.17578c0.26953-0.12109 0.5-0.28516 0.69141-0.49219 0.19531-0.20703 0.34766-0.45703 0.45703-0.75 0.10547-0.29297 0.16016-0.60938 0.16016-0.95312m1.9766 0c0 0.60156-0.10547 1.1562-0.3125 1.6562-0.21094 0.5-0.5 0.92578-0.87109 1.2812-0.37109 0.35547-0.8125 0.63281-1.3203 0.82812-0.51172 0.19141-1.0664 0.28906-1.6641 0.28906s-1.1523-0.097656-1.6602-0.28906c-0.50781-0.19531-0.94531-0.47266-1.3164-0.82812-0.37109-0.35547-0.66016-0.78125-0.86719-1.2812-0.21094-0.5-0.31641-1.0547-0.31641-1.6562 0-0.61328 0.10547-1.1641 0.31641-1.6562 0.20703-0.49219 0.49609-0.91016 0.86719-1.2578 0.37109-0.34375 0.80859-0.60938 1.3164-0.79688 0.50781-0.1875 1.0625-0.28125 1.6602-0.28125s1.1523 0.09375 1.6641 0.28125c0.50781 0.1875 0.94922 0.45312 1.3203 0.79688 0.37109 0.34766 0.66016 0.76562 0.87109 1.2578 0.20703 0.49219 0.3125 1.043 0.3125 1.6562"/>
  <path d="m91.352 83.23v1.5742h2.957v1.5195h-2.957v2.9688h-1.8242v-7.6406h5.0312v1.5781z"/>
  <path d="m28.039 24.695v26.324h-8.2188v-26.324h-9.6133v-6.8359h27.445v6.8359z"/>
  <path d="m68.961 43.973c-0.6875 1.6367-1.6719 3.043-2.9531 4.2148-1.2812 1.168-2.8281 2.082-4.6406 2.7383-1.8086 0.65625-3.8203 0.98438-6.0312 0.98438-2.2422 0-4.2617-0.32812-6.0586-0.98438-1.793-0.65625-3.3164-1.5703-4.5664-2.7383-1.25-1.1719-2.2109-2.5781-2.8828-4.2148-0.67188-1.6406-1.0078-3.4609-1.0078-5.457v-20.656h8.1719v20c0 0.90625 0.11719 1.7656 0.35937 2.5742 0.24219 0.8125 0.60938 1.5391 1.1055 2.1797 0.49609 0.64062 1.1523 1.1484 1.9727 1.5234 0.81641 0.375 1.8008 0.55859 2.9531 0.55859 1.1562 0 2.1406-0.18359 2.957-0.55859s1.4805-0.88281 1.9961-1.5234c0.51172-0.64062 0.87891-1.3672 1.1055-2.1797 0.22266-0.80859 0.33594-1.668 0.33594-2.5742v-20h8.2188v20.656c0 1.9961-0.34375 3.8164-1.0352 5.457"/>
  <path d="m75.082 56.125 16.664-40.816h-5.9531l-16.664 40.816z"/>
  <path d="m99.84 32.449c2.9414 0 5.4648 1.8047 6.5156 4.3711h-13.031c1.0508-2.5664 3.5742-4.3711 6.5156-4.3711m0-5.3711c-6.8555 0-12.414 5.5586-12.414 12.414 0 6.8555 5.5586 12.414 12.414 12.414 4.3984 0 8.8945-1.9258 11.324-5.3945l-5.6328-2.2969c-1.5 1.6641-3.5508 2.3203-5.6914 2.3203-3.1562 0-5.8281-2.0781-6.7227-4.9375h18.957c0.11719-0.68359 0.17969-1.3867 0.17969-2.1055 0-6.8555-5.5586-12.414-12.414-12.414"/>
 </g>
</svg>
