<?xml version="1.0" encoding="UTF-8"?><svg xmlns="http://www.w3.org/2000/svg" viewBox="0 0 517.01 56.69"><defs><style>.d{fill:#fff;}.e{fill:#ff6464;}</style></defs><g id="a"/><g id="b"><g id="c"><g><g><path class="d" d="M233.14,55.39V31.67h-8v-3.32h20.05v3.32h-7.96v23.72h-4.09Z"/><path class="d" d="M254.23,55.85c-1.88,0-3.55-.42-5-1.26-1.46-.84-2.59-2-3.42-3.5s-1.24-3.23-1.24-5.21,.41-3.77,1.22-5.29,1.94-2.7,3.4-3.55c1.45-.85,3.15-1.27,5.08-1.27s3.52,.42,4.91,1.25c1.39,.84,2.47,1.95,3.24,3.34s1.16,2.92,1.16,4.6c0,.26,0,.54-.02,.83-.01,.3-.03,.62-.06,.99h-14.91c.13,1.85,.74,3.26,1.83,4.23,1.09,.97,2.36,1.45,3.8,1.45,1.16,0,2.13-.26,2.92-.79,.79-.53,1.37-1.24,1.76-2.14h4.09c-.52,1.8-1.54,3.31-3.07,4.52-1.53,1.21-3.43,1.82-5.7,1.82Zm0-16.72c-1.37,0-2.58,.41-3.63,1.22-1.06,.81-1.7,2.03-1.93,3.65h10.81c-.08-1.49-.6-2.68-1.58-3.55-.98-.88-2.2-1.31-3.67-1.31Z"/><path class="d" d="M273.85,55.85c-1.62,0-2.96-.27-4.02-.81-1.06-.54-1.84-1.25-2.36-2.14s-.77-1.86-.77-2.92c0-1.85,.72-3.32,2.16-4.4,1.44-1.08,3.5-1.62,6.18-1.62h5.02v-.35c0-1.49-.41-2.61-1.22-3.36-.81-.75-1.86-1.12-3.15-1.12-1.13,0-2.12,.28-2.95,.83-.84,.55-1.35,1.37-1.53,2.45h-4.09c.13-1.39,.6-2.58,1.41-3.57,.81-.99,1.84-1.75,3.09-2.28,1.25-.53,2.62-.79,4.11-.79,2.68,0,4.75,.7,6.22,2.1,1.47,1.4,2.2,3.32,2.2,5.74v11.78h-3.55l-.35-3.28c-.54,1.06-1.33,1.94-2.36,2.67s-2.38,1.08-4.06,1.08Zm.81-3.32c1.11,0,2.04-.26,2.8-.79,.76-.53,1.35-1.23,1.78-2.1,.43-.88,.69-1.84,.79-2.9h-4.56c-1.62,0-2.77,.28-3.46,.85-.68,.57-1.02,1.28-1.02,2.12s.33,1.56,.98,2.07,1.55,.75,2.68,.75Z"/><path class="d" d="M289,55.39v-19.16h3.63l.35,2.7c.62-.98,1.44-1.75,2.45-2.32,1.02-.57,2.19-.85,3.53-.85,3.04,0,5.15,1.2,6.33,3.59,.7-1.11,1.63-1.98,2.8-2.63,1.17-.64,2.44-.96,3.8-.96,2.39,0,4.27,.72,5.64,2.16,1.36,1.44,2.05,3.59,2.05,6.45v11.01h-4.09v-10.58c0-3.71-1.42-5.56-4.25-5.56-1.44,0-2.62,.54-3.53,1.62-.91,1.08-1.37,2.63-1.37,4.64v9.89h-4.09v-10.58c0-3.71-1.43-5.56-4.29-5.56-1.42,0-2.58,.54-3.5,1.62-.91,1.08-1.37,2.63-1.37,4.64v9.89h-4.09Z"/><path class="d" d="M334.27,55.39V28.35h17.19v3.32h-13.09v8.42h11.94v3.25h-11.94v8.73h13.09v3.32h-17.19Z"/><path class="d" d="M357.79,32.6c-.77,0-1.41-.24-1.91-.71-.5-.48-.75-1.08-.75-1.8s.25-1.32,.75-1.8c.5-.48,1.14-.71,1.91-.71s1.41,.24,1.91,.71c.5,.48,.75,1.08,.75,1.8s-.25,1.32-.75,1.8-1.14,.71-1.91,.71Zm-2.05,22.79v-19.16h4.09v19.16h-4.09Z"/><path class="d" d="M365,55.39v-19.16h3.63l.31,3.36c.59-1.18,1.46-2.12,2.61-2.8,1.15-.68,2.47-1.02,3.96-1.02,2.32,0,4.14,.72,5.47,2.16,1.33,1.44,1.99,3.59,1.99,6.45v11.01h-4.06v-10.58c0-3.71-1.52-5.56-4.56-5.56-1.52,0-2.77,.54-3.77,1.62-.99,1.08-1.49,2.63-1.49,4.64v9.89h-4.09Z"/><path class="d" d="M396.36,55.85c-1.85,0-3.49-.44-4.91-1.31-1.42-.88-2.52-2.07-3.32-3.59-.8-1.52-1.2-3.25-1.2-5.18s.4-3.65,1.2-5.16c.8-1.51,1.91-2.69,3.34-3.55,1.43-.86,3.07-1.29,4.92-1.29,1.52,0,2.85,.3,4,.89,1.15,.59,2.04,1.43,2.68,2.51v-11.59h4.09v27.81h-3.67l-.42-2.97c-.62,.9-1.47,1.7-2.55,2.4s-2.47,1.04-4.17,1.04Zm.73-3.55c1.75,0,3.19-.6,4.31-1.82,1.12-1.21,1.68-2.77,1.68-4.67s-.56-3.5-1.68-4.69c-1.12-1.2-2.56-1.8-4.31-1.8s-3.19,.6-4.33,1.8c-1.13,1.2-1.7,2.76-1.7,4.69,0,1.26,.26,2.38,.77,3.36,.52,.98,1.23,1.75,2.14,2.3,.91,.55,1.95,.83,3.11,.83Z"/><path class="d" d="M412.23,55.39V27.58h4.09v11.74c.64-1.11,1.54-1.98,2.68-2.61,1.15-.63,2.41-.95,3.8-.95,2.29,0,4.09,.72,5.41,2.16,1.31,1.44,1.97,3.59,1.97,6.45v11.01h-4.06v-10.58c0-3.71-1.48-5.56-4.44-5.56-1.54,0-2.83,.54-3.84,1.62-1.02,1.08-1.53,2.63-1.53,4.64v9.89h-4.09Z"/><path class="d" d="M443.82,55.85c-1.83,0-3.47-.42-4.92-1.26-1.46-.84-2.61-2.01-3.46-3.51-.85-1.51-1.27-3.26-1.27-5.27s.43-3.77,1.29-5.27c.86-1.51,2.03-2.68,3.5-3.51s3.1-1.25,4.91-1.25,3.47,.42,4.92,1.25c1.45,.84,2.61,2.01,3.48,3.51,.86,1.51,1.29,3.26,1.29,5.27s-.43,3.77-1.29,5.27c-.86,1.51-2.03,2.68-3.5,3.51-1.47,.84-3.12,1.26-4.94,1.26Zm0-3.52c.98,0,1.89-.24,2.72-.73,.84-.49,1.51-1.22,2.03-2.18,.51-.97,.77-2.17,.77-3.61s-.25-2.65-.75-3.61c-.5-.97-1.17-1.69-2.01-2.18-.84-.49-1.74-.73-2.72-.73s-1.89,.25-2.72,.73c-.84,.49-1.51,1.22-2.03,2.18s-.77,2.17-.77,3.61,.26,2.65,.77,3.61,1.18,1.69,2.01,2.18c.82,.49,1.72,.73,2.7,.73Z"/><path class="d" d="M462.31,55.39l-7.18-19.16h4.29l5.33,15.26,5.33-15.26h4.25l-7.15,19.16h-4.87Z"/><path class="d" d="M485.61,55.85c-1.88,0-3.55-.42-5-1.26-1.46-.84-2.59-2-3.42-3.5s-1.24-3.23-1.24-5.21,.41-3.77,1.22-5.29,1.94-2.7,3.4-3.55c1.45-.85,3.15-1.27,5.08-1.27s3.52,.42,4.91,1.25c1.39,.84,2.47,1.95,3.24,3.34s1.16,2.92,1.16,4.6c0,.26,0,.54-.02,.83-.01,.3-.03,.62-.06,.99h-14.91c.13,1.85,.74,3.26,1.83,4.23,1.09,.97,2.36,1.45,3.8,1.45,1.16,0,2.13-.26,2.92-.79,.79-.53,1.37-1.24,1.76-2.14h4.09c-.52,1.8-1.54,3.31-3.07,4.52-1.53,1.21-3.43,1.82-5.7,1.82Zm0-16.72c-1.37,0-2.58,.41-3.63,1.22-1.06,.81-1.7,2.03-1.93,3.65h10.81c-.08-1.49-.6-2.68-1.58-3.55-.98-.88-2.2-1.31-3.67-1.31Z"/><path class="d" d="M499.05,55.39v-19.16h3.63l.31,3.36c.59-1.18,1.46-2.12,2.61-2.8,1.15-.68,2.47-1.02,3.96-1.02,2.32,0,4.14,.72,5.47,2.16,1.33,1.44,1.99,3.59,1.99,6.45v11.01h-4.06v-10.58c0-3.71-1.52-5.56-4.56-5.56-1.52,0-2.77,.54-3.77,1.62-.99,1.08-1.49,2.63-1.49,4.64v9.89h-4.09Z"/></g><g><g><path class="d" d="M70.25,38.47l48.26-11.53c-.19-5.02-1.39-9.48-3.62-13.37-2.44-4.25-5.74-7.58-9.92-9.98-4.18-2.4-8.85-3.6-14.01-3.6s-9.94,1.2-14.12,3.6c-4.18,2.4-7.51,5.72-9.98,9.98-2.47,4.25-3.71,9.18-3.71,14.77,0,4.15,.67,7.93,2.01,11.34l5.09-1.21Zm11.17-22.28c2.65-2.73,5.83-4.09,9.54-4.09s6.69,1.36,9.38,4.09c.71,.72,1.32,1.53,1.84,2.43l-24.56,6.53c.44-3.81,1.7-6.8,3.8-8.96Z"/><path class="d" d="M100.33,40.5c-2.69,2.73-5.85,4.09-9.49,4.09s-6.78-1.36-9.43-4.09c-.61-.63-1.14-1.33-1.61-2.1l-13.76,3.29c.24,.48,.49,.96,.76,1.43,2.43,4.25,5.74,7.58,9.92,9.98,4.18,2.4,8.89,3.6,14.12,3.6s9.85-1.2,14.06-3.6c4.21-2.4,7.54-5.72,9.98-9.98,1.42-2.47,2.42-5.17,3.01-8.1h-14.42c-.67,2.2-1.72,4.03-3.15,5.49Z"/></g><g><polygon class="d" points="152.84 18.75 152.84 5.14 136.19 9.57 135.13 1.31 122.7 1.31 122.7 25.95 152.84 18.75"/><polygon class="d" points="122.7 28.16 122.7 55.39 136.65 55.39 136.65 24.83 122.7 28.16"/></g><g><path class="d" d="M178.94,12.51c.06-.02,.12-.03,.18-.04l22.07-5.27c-1.47-1.37-3.09-2.57-4.88-3.6-4.18-2.4-8.85-3.6-14.01-3.6s-9.94,1.2-14.12,3.6c-4.18,2.4-7.51,5.72-9.98,9.98-.81,1.39-1.48,2.84-2.02,4.37l22.75-5.43Z"/><path class="d" d="M202.96,8.99l-16.25,3.88c1.8,.67,3.46,1.77,4.98,3.31,2.69,2.73,4.03,6.78,4.03,12.16s-1.35,9.43-4.03,12.16c-2.69,2.73-5.85,4.09-9.49,4.09s-6.78-1.36-9.43-4.09c-2.65-2.73-3.98-6.78-3.98-12.16s1.32-9.41,3.96-12.14l-17.29,4.13c-.64,2.5-.96,5.17-.96,8.01,0,5.6,1.22,10.52,3.65,14.77,2.43,4.25,5.74,7.58,9.92,9.98,4.18,2.4,8.89,3.6,14.12,3.6s9.85-1.2,14.06-3.6c4.21-2.4,7.54-5.72,9.98-9.98,2.43-4.25,3.65-9.18,3.65-14.77s-1.22-10.52-3.65-14.77c-.96-1.67-2.05-3.19-3.28-4.58Z"/></g><path class="e" d="M59.2,41.11l-.17-.34L39.66,1.31H7.8V12.1h13.45L0,55.39H15.61l2.04-4.35,41.55-9.92Zm-26.09-23.04l7.89,16.82-18.02,4.79,10.13-21.62Z"/></g></g><polygon class="e" points="61.79 46.39 46.38 46.39 50.6 55.39 66.21 55.39 61.79 46.39"/></g></g></svg>