<?xml version="1.0" encoding="UTF-8"?><svg xmlns="http://www.w3.org/2000/svg" viewBox="0 0 209.89 91.09"><defs><style>.d{fill:#fff;}.e{fill:#ff6464;}</style></defs><g id="a"/><g id="b"><g id="c"><g><g><path class="d" d="M5.72,90.76v-16.96H0v-2.38H14.34v2.38h-5.69v16.96h-2.93Z"/><path class="d" d="M20.94,91.09c-1.34,0-2.54-.3-3.58-.9-1.04-.6-1.86-1.43-2.44-2.5-.59-1.07-.88-2.31-.88-3.73s.29-2.7,.87-3.78c.58-1.09,1.39-1.93,2.43-2.54,1.04-.61,2.25-.91,3.63-.91s2.51,.3,3.51,.9c.99,.6,1.77,1.4,2.32,2.39,.55,.99,.83,2.09,.83,3.29,0,.18,0,.38-.01,.59,0,.21-.02,.45-.04,.7h-10.66c.09,1.33,.53,2.33,1.31,3.02,.78,.69,1.69,1.04,2.72,1.04,.83,0,1.52-.19,2.09-.57,.56-.38,.98-.89,1.26-1.53h2.93c-.37,1.29-1.1,2.37-2.2,3.23-1.1,.87-2.45,1.3-4.07,1.3Zm0-11.96c-.98,0-1.84,.29-2.6,.87-.76,.58-1.22,1.45-1.38,2.61h7.73c-.06-1.07-.43-1.92-1.13-2.54-.7-.63-1.57-.94-2.62-.94Z"/><path class="d" d="M35.08,91.09c-1.16,0-2.12-.19-2.87-.58-.76-.39-1.32-.9-1.68-1.53-.37-.64-.55-1.33-.55-2.09,0-1.33,.52-2.38,1.55-3.15,1.03-.77,2.5-1.16,4.42-1.16h3.59v-.25c0-1.07-.29-1.87-.87-2.4-.58-.53-1.33-.8-2.25-.8-.81,0-1.51,.2-2.11,.59-.6,.4-.96,.98-1.09,1.75h-2.93c.09-.99,.43-1.85,1.01-2.55,.58-.71,1.32-1.25,2.21-1.63,.89-.38,1.87-.57,2.94-.57,1.92,0,3.4,.5,4.45,1.51s1.57,2.37,1.57,4.1v8.42h-2.54l-.25-2.35c-.39,.75-.95,1.39-1.68,1.91-.74,.52-1.7,.77-2.9,.77Zm.58-2.38c.79,0,1.46-.19,2-.57,.54-.38,.97-.88,1.27-1.5,.3-.63,.49-1.32,.57-2.07h-3.26c-1.16,0-1.98,.2-2.47,.61-.49,.41-.73,.91-.73,1.52s.23,1.12,.7,1.48c.47,.36,1.11,.54,1.92,.54Z"/><path class="d" d="M46.01,90.76v-13.7h2.6l.25,1.93c.44-.7,1.03-1.25,1.75-1.66,.73-.41,1.57-.61,2.53-.61,2.17,0,3.68,.86,4.53,2.57,.5-.79,1.16-1.42,2-1.88,.84-.46,1.74-.69,2.72-.69,1.71,0,3.06,.52,4.03,1.55,.98,1.03,1.46,2.57,1.46,4.61v7.87h-2.93v-7.57c0-2.65-1.01-3.98-3.04-3.98-1.03,0-1.87,.39-2.53,1.16-.65,.77-.98,1.88-.98,3.31v7.07h-2.93v-7.57c0-2.65-1.02-3.98-3.07-3.98-1.01,0-1.85,.39-2.5,1.16-.65,.77-.98,1.88-.98,3.31v7.07h-2.93Z"/><path class="d" d="M78.38,90.76v-19.33h12.29v2.38h-9.36v6.02h8.53v2.32h-8.53v6.24h9.36v2.38h-12.29Z"/><path class="d" d="M95.3,74.46c-.55,0-1.01-.17-1.37-.51-.36-.34-.54-.77-.54-1.28s.18-.94,.54-1.28c.36-.34,.81-.51,1.37-.51s1.01,.17,1.37,.51,.54,.77,.54,1.28-.18,.94-.54,1.28-.81,.51-1.37,.51Zm-1.46,16.3v-13.7h2.93v13.7h-2.93Z"/><path class="d" d="M100.57,90.76v-13.7h2.6l.22,2.4c.42-.85,1.04-1.51,1.86-2,.82-.49,1.76-.73,2.83-.73,1.66,0,2.96,.52,3.91,1.55,.95,1.03,1.42,2.57,1.42,4.61v7.87h-2.9v-7.57c0-2.65-1.09-3.98-3.26-3.98-1.09,0-1.98,.39-2.69,1.16-.71,.77-1.06,1.88-1.06,3.31v7.07h-2.93Z"/><path class="d" d="M123.09,91.09c-1.33,0-2.5-.31-3.51-.94-1.01-.63-1.8-1.48-2.38-2.57-.57-1.09-.86-2.32-.86-3.7s.29-2.61,.86-3.69,1.37-1.92,2.39-2.54,2.2-.93,3.52-.93c1.09,0,2.04,.21,2.86,.64,.82,.42,1.46,1.02,1.92,1.79v-8.29h2.93v19.89h-2.62l-.3-2.13c-.44,.64-1.05,1.22-1.82,1.71s-1.77,.75-2.98,.75Zm.52-2.54c1.25,0,2.28-.43,3.08-1.3,.8-.87,1.2-1.98,1.2-3.34s-.4-2.5-1.2-3.36c-.8-.86-1.83-1.28-3.08-1.28s-2.28,.43-3.09,1.28c-.81,.86-1.22,1.98-1.22,3.36,0,.9,.18,1.7,.55,2.4,.37,.7,.88,1.25,1.53,1.64,.65,.4,1.4,.59,2.22,.59Z"/><path class="d" d="M134.53,90.76v-19.89h2.93v8.4c.46-.79,1.1-1.41,1.92-1.86s1.73-.68,2.72-.68c1.64,0,2.93,.52,3.87,1.55s1.41,2.57,1.41,4.61v7.87h-2.9v-7.57c0-2.65-1.06-3.98-3.18-3.98-1.1,0-2.02,.39-2.75,1.16-.73,.77-1.09,1.88-1.09,3.31v7.07h-2.93Z"/><path class="d" d="M157.22,91.09c-1.31,0-2.48-.3-3.52-.9-1.04-.6-1.86-1.44-2.47-2.51-.61-1.08-.91-2.33-.91-3.77s.31-2.69,.93-3.77c.62-1.08,1.45-1.92,2.5-2.51,1.05-.6,2.22-.9,3.51-.9s2.48,.3,3.52,.9c1.04,.6,1.87,1.44,2.49,2.51,.62,1.08,.93,2.33,.93,3.77s-.31,2.69-.93,3.77c-.62,1.08-1.45,1.92-2.5,2.51-1.05,.6-2.23,.9-3.54,.9Zm0-2.51c.7,0,1.35-.17,1.95-.53,.6-.35,1.08-.87,1.45-1.56,.37-.69,.55-1.55,.55-2.58s-.18-1.89-.54-2.58-.84-1.21-1.44-1.56c-.6-.35-1.25-.52-1.95-.52s-1.35,.17-1.95,.52c-.6,.35-1.08,.87-1.45,1.56-.37,.69-.55,1.55-.55,2.58s.18,1.89,.55,2.58c.37,.69,.85,1.21,1.44,1.56,.59,.35,1.23,.53,1.93,.53Z"/><path class="d" d="M170.56,90.76l-5.14-13.7h3.07l3.81,10.91,3.81-10.91h3.04l-5.11,13.7h-3.48Z"/><path class="d" d="M187.33,91.09c-1.34,0-2.54-.3-3.58-.9-1.04-.6-1.86-1.43-2.44-2.5-.59-1.07-.88-2.31-.88-3.73s.29-2.7,.87-3.78c.58-1.09,1.39-1.93,2.43-2.54,1.04-.61,2.25-.91,3.63-.91s2.51,.3,3.51,.9c.99,.6,1.77,1.4,2.32,2.39s.83,2.09,.83,3.29c0,.18,0,.38-.01,.59,0,.21-.02,.45-.04,.7h-10.66c.09,1.33,.53,2.33,1.31,3.02s1.69,1.04,2.72,1.04c.83,0,1.52-.19,2.09-.57,.56-.38,.98-.89,1.26-1.53h2.93c-.37,1.29-1.1,2.37-2.2,3.23-1.1,.87-2.45,1.3-4.07,1.3Zm0-11.96c-.98,0-1.84,.29-2.6,.87-.76,.58-1.22,1.45-1.38,2.61h7.73c-.06-1.07-.43-1.92-1.13-2.54-.7-.63-1.57-.94-2.62-.94Z"/><path class="d" d="M197.04,90.76v-13.7h2.6l.22,2.4c.42-.85,1.04-1.51,1.86-2,.82-.49,1.76-.73,2.83-.73,1.66,0,2.96,.52,3.91,1.55,.95,1.03,1.42,2.57,1.42,4.61v7.87h-2.9v-7.57c0-2.65-1.09-3.98-3.26-3.98-1.09,0-1.98,.39-2.69,1.16-.71,.77-1.06,1.88-1.06,3.31v7.07h-2.93Z"/></g><g><path class="d" d="M70.25,38.47l48.26-11.53c-.19-5.02-1.39-9.48-3.62-13.37-2.44-4.25-5.74-7.58-9.92-9.98-4.18-2.4-8.85-3.6-14.01-3.6s-9.94,1.2-14.12,3.6c-4.18,2.4-7.51,5.72-9.98,9.98-2.47,4.25-3.71,9.18-3.71,14.77,0,4.15,.67,7.93,2.01,11.34l5.09-1.21Zm11.17-22.28c2.65-2.73,5.83-4.09,9.54-4.09s6.69,1.36,9.38,4.09c.71,.72,1.32,1.53,1.84,2.43l-24.56,6.53c.44-3.81,1.7-6.8,3.8-8.96Z"/><path class="d" d="M100.33,40.5c-2.69,2.73-5.85,4.09-9.49,4.09s-6.78-1.36-9.43-4.09c-.61-.63-1.14-1.33-1.61-2.1l-13.76,3.29c.24,.48,.49,.96,.76,1.43,2.43,4.25,5.74,7.58,9.92,9.98,4.18,2.4,8.89,3.6,14.12,3.6s9.85-1.2,14.06-3.6c4.21-2.4,7.54-5.72,9.98-9.98,1.42-2.47,2.42-5.17,3.01-8.1h-14.42c-.67,2.2-1.72,4.03-3.15,5.49Z"/></g><g><polygon class="d" points="152.84 18.75 152.84 5.14 136.19 9.57 135.13 1.31 122.7 1.31 122.7 25.95 152.84 18.75"/><polygon class="d" points="122.7 28.16 122.7 55.39 136.65 55.39 136.65 24.83 122.7 28.16"/></g><g><path class="d" d="M178.94,12.51c.06-.02,.12-.03,.18-.04l22.07-5.27c-1.47-1.37-3.09-2.57-4.88-3.6-4.18-2.4-8.85-3.6-14.01-3.6s-9.94,1.2-14.12,3.6c-4.18,2.4-7.51,5.72-9.98,9.98-.81,1.39-1.48,2.84-2.02,4.37l22.75-5.43Z"/><path class="d" d="M202.96,8.99l-16.25,3.88c1.8,.67,3.46,1.77,4.98,3.31,2.69,2.73,4.03,6.78,4.03,12.16s-1.35,9.43-4.03,12.16c-2.69,2.73-5.85,4.09-9.49,4.09s-6.78-1.36-9.43-4.09c-2.65-2.73-3.98-6.78-3.98-12.16s1.32-9.41,3.96-12.14l-17.29,4.13c-.64,2.5-.96,5.17-.96,8.01,0,5.6,1.22,10.52,3.65,14.77,2.43,4.25,5.74,7.58,9.92,9.98,4.18,2.4,8.89,3.6,14.12,3.6s9.85-1.2,14.06-3.6c4.21-2.4,7.54-5.72,9.98-9.98,2.43-4.25,3.65-9.18,3.65-14.77s-1.22-10.52-3.65-14.77c-.96-1.67-2.05-3.19-3.28-4.58Z"/></g><path class="e" d="M59.2,41.11l-.17-.34L39.66,1.31H7.8V12.1h13.45L0,55.39H15.61l2.04-4.35,41.55-9.92Zm-26.09-23.04l7.89,16.82-18.02,4.79,10.13-21.62Z"/></g><polygon class="e" points="61.79 46.39 46.38 46.39 50.6 55.39 66.21 55.39 61.79 46.39"/></g></g></svg>